Coordinates
version=1
nRows=16
nColumns=38
inDegrees=no

Units are S.I. units (second, meters, Newtons, ...)
If the header above contains a line with 'inDegrees', this indicates whether rotational values are in degrees (yes) or radians (no).

endheader
time	pelvis_tilt	pelvis_list	pelvis_rotation	pelvis_tx	pelvis_ty	pelvis_tz	hip_flexion_r	hip_adduction_r	hip_rotation_r	knee_angle_r	ankle_angle_r	subtalar_angle_r	mtp_angle_r	hip_flexion_l	hip_adduction_l	hip_rotation_l	knee_angle_l	ankle_angle_l	subtalar_angle_l	mtp_angle_l	lumbar_extension	lumbar_bending	lumbar_rotation	arm_flex_r	arm_add_r	arm_rot_r	elbow_flex_r	pro_sup_r	wrist_flex_r	wrist_dev_r	arm_flex_l	arm_add_l	arm_rot_l	elbow_flex_l	pro_sup_l	wrist_flex_l	wrist_dev_l
2.81	-0.0171777	-0.103749	0.0094731	0.907371	1.04429	-0.338445	0.477034	0.105973	-0.251461	-0.305738	0.077083	-0.1	-4.52391e-05	-0.233532	-0.16397	-0.300312	-1.34585	-0.024439	0.1	-7.93769e-05	-0.182111	0.224641	-0.109464	-0.723798	-0.284901	-0.374382	1.94159	1.6228	0.000525988	0.00363372	-0.23093	-0.319679	0.231422	2.33637	1.73894	0.00300936	0.00292548
2.82	-0.017053	-0.113305	0.0101575	0.904487	1.03785	-0.337678	0.473077	0.120151	-0.243688	-0.367251	0.109883	-0.1	-4.52391e-05	-0.17708	-0.183411	-0.280103	-1.46077	-0.00583522	0.1	-7.93769e-05	-0.194242	0.237308	-0.0915873	-0.685768	-0.303218	-0.364635	1.91772	1.62337	0.000525988	0.00363372	-0.249423	-0.333369	0.216083	2.30397	1.72968	0.00300936	0.00292548
2.83	-0.0184174	-0.122274	0.00911745	0.900853	1.03084	-0.336655	0.474103	0.134574	-0.23248	-0.44668	0.161375	-0.1	-4.52391e-05	-0.113283	-0.201581	-0.260369	-1.57084	0.0175194	0.1	-7.93769e-05	-0.207015	0.247815	-0.0702908	-0.642553	-0.322204	-0.352044	1.89202	1.62409	0.000525988	0.00363372	-0.267847	-0.347459	0.197689	2.26966	1.72321	0.00300936	0.00292548
2.84	-0.0207354	-0.129638	0.00633028	0.896552	1.02386	-0.335467	0.476488	0.14828	-0.218578	-0.536138	0.23059	-0.1	-4.52391e-05	-0.0431402	-0.216804	-0.240872	-1.67354	0.0457265	0.1	-7.93769e-05	-0.220754	0.255028	-0.0458605	-0.594426	-0.340981	-0.337111	1.86544	1.62458	0.000525988	0.00363372	-0.285831	-0.361444	0.176915	2.23391	1.72055	0.00300936	0.00292548
2.85	-0.0235731	-0.134359	0.00209097	0.891767	1.01745	-0.334222	0.47626	0.160013	-0.202855	-0.626932	0.314184	-0.1	-4.52391e-05	0.0321345	-0.227414	-0.221574	-1.76621	0.078291	0.1	-7.93769e-05	-0.235274	0.257922	-0.0189718	-0.542349	-0.358694	-0.320445	1.83952	1.62484	0.000525988	0.00363372	-0.303239	-0.374869	0.154644	2.19727	1.72213	0.00300936	0.00292548
2.86	-0.0267101	-0.135492	-0.00300169	0.886695	1.01189	-0.333025	0.469692	0.168398	-0.186176	-0.710606	0.406691	-0.1	-4.52391e-05	0.111212	-0.231994	-0.202672	-1.84624	0.114109	0.1	-7.93769e-05	-0.249776	0.255718	0.00937711	-0.488043	-0.374553	-0.302703	1.81636	1.62513	0.000525988	0.00363372	-0.320187	-0.387394	0.131936	2.16052	1.72768	0.00300936	0.00292548
2.87	-0.0302059	-0.132328	-0.00815423	0.881575	1.00732	-0.331968	0.453863	0.172146	-0.169375	-0.779914	0.50115	-0.1	-4.52391e-05	0.192734	-0.22959	-0.184598	-1.9113	0.151516	0.1	-7.93769e-05	-0.262917	0.247989	0.0380371	-0.433887	-0.387881	-0.284528	1.79847	1.62587	0.000525988	0.00363372	-0.337023	-0.398825	0.109936	2.12472	1.73625	0.00300936	0.00292548
2.88	-0.0343456	-0.12452	-0.0125398	0.876717	1.00387	-0.331121	0.42703	0.170267	-0.153352	-0.829506	0.589912	-0.1	-4.52391e-05	0.275344	-0.21986	-0.167975	-1.9596	0.188429	0.1	-7.93769e-05	-0.273044	0.234718	0.065929	-0.382628	-0.398171	-0.266472	1.78843	1.62749	0.000525988	0.00363372	-0.354279	-0.409102	0.0897234	2.09126	1.74639	0.00300936	0.00292548
2.89	-0.039501	-0.11211	-0.0154717	0.872467	1.00164	-0.330522	0.388704	0.162236	-0.139095	-0.8562	0.665305	-0.1	-4.52391e-05	0.357671	-0.203139	-0.153536	-1.98999	0.222709	0.1	-7.93769e-05	-0.278563	0.216321	0.092234	-0.336952	-0.405142	-0.248913	1.78845	1.63032	0.000525988	0.00363372	-0.372601	-0.418235	0.072117	2.0617	1.75652	0.00300936	0.00292548
2.9	-0.0459936	-0.0955223	-0.0165212	0.869144	1.00071	-0.330193	0.339479	0.148096	-0.127602	-0.858913	0.720168	-0.1	-4.52391e-05	0.43828	-0.180364	-0.14198	-2.00203	0.25249	0.1	-7.93769e-05	-0.278308	0.193572	0.116488	-0.29903	-0.408784	-0.23197	1.79999	1.63461	0.000525988	0.00363372	-0.39269	-0.426209	0.0575096	2.0376	1.76519	0.00300936	0.00292548
2.91	-0.0539728	-0.0754972	-0.0155685	0.866995	1.00103	-0.330148	0.280765	0.128443	-0.119789	-0.838408	0.748438	-0.1	-4.52391e-05	0.51566	-0.152935	-0.133847	-1.99595	0.276585	0.1	-7.93769e-05	-0.271794	0.167488	0.138563	-0.270171	-0.409346	-0.215459	1.82342	1.64056	0.000525988	0.00363372	-0.415235	-0.432903	0.0457761	2.02028	1.77137	0.00300936	0.00292548
2.92	-0.0633545	-0.0529841	-0.012778	0.866158	1.00251	-0.330397	0.214522	0.104327	-0.116401	-0.797024	0.745786	-0.1	-4.52391e-05	0.588264	-0.122508	-0.129408	-1.97249	0.294665	0.1	-7.93769e-05	-0.259282	0.139197	0.158568	-0.250672	-0.407284	-0.198928	1.85792	1.64842	0.000525988	0.00363372	-0.44084	-0.438053	0.0363044	2.01058	1.77451	0.00300936	0.00292548
2.93	-0.0738168	-0.02905	-0.00851369	0.866645	1.00502	-0.330938	0.14305	0.0771171	-0.11794	-0.738453	0.710262	-0.1	-4.52391e-05	0.654583	-0.0907966	-0.1286	-1.93276	0.307195	0.1	-7.93769e-05	-0.241724	0.109837	0.176714	-0.239875	-0.40318	-0.181757	1.90169	1.65845	0.000525988	0.00363372	-0.469923	-0.441259	0.0281391	2.00873	1.77446	0.00300936	0.00292548
2.94	-0.0848302	-0.00481915	-0.00323125	0.868336	1.00841	-0.33175	0.0688458	0.0483776	-0.124595	-0.667577	0.64284	-0.1	-4.52391e-05	0.713227	-0.0594451	-0.131069	-1.87806	0.315232	0.1	-7.93769e-05	-0.220615	0.0805181	0.193215	-0.236373	-0.397648	-0.163313	1.95218	1.67082	0.000525988	0.00363372	-0.502599	-0.442036	0.0201905	2.01426	1.77134	0.00300936	0.00292548
2.95	-0.0957029	0.0185667	0.00261441	0.870999	1.0125	-0.332784	-0.00550792	0.0197763	-0.136149	-0.590323	0.547694	-0.1	-4.52391e-05	0.762996	-0.0299574	-0.136281	-1.80972	0.320119	0.1	-7.93769e-05	-0.197796	0.0523186	0.208227	-0.238313	-0.391282	-0.14312	2.00647	1.68543	0.000525988	0.00363372	-0.538588	-0.43988	0.0114439	2.02617	1.76539	0.00300936	0.00292548
2.96	-0.105673	0.0399544	0.00862446	0.874322	1.01707	-0.333952	-0.07743	-0.00699096	-0.151832	-0.513448	0.432022	-0.1	-4.52391e-05	0.802926	-0.00367816	-0.143734	-1.729	0.323193	0.1	-7.93769e-05	-0.175231	0.0262886	0.22184	-0.2437	-0.384606	-0.120987	2.0616	1.70185	0.000525988	0.00363372	-0.577184	-0.434341	0.00111913	2.04303	1.75701	0.00300936	0.00292548
